<svg xmlns="http://www.w3.org/2000/svg" xmlns:xlink="http://www.w3.org/1999/xlink" version="1.1" x="0px" y="0px" viewBox="0 0 12 17.5" enable-background="new 0 0 12 14" xml:space="preserve"><path fill-rule="evenodd" clip-rule="evenodd" d="M0,0h12v4h-1c-0.24-1.1-0.12-1.98-0.5-2.32C10.13,1.35,9.2,1,8,1H7v11  c0,0.8,0.12,1.05,0.37,1.24c0.25,0.19,0.79,0.32,1.63,0.38V14H2.98v-0.38c0.87-0.07,1.42-0.21,1.63-0.44C4.83,12.96,5,12.89,5,12V1  H4C2.86,1,1.85,1.35,1.44,1.68C1.02,2.01,1.21,2.89,1,4H0V0z"/><text x="0" y="29" fill="#000000" font-size="5px" font-weight="bold" font-family="'Helvetica Neue', Helvetica, Arial-Unicode, Arial, Sans-serif">Created by Dilon Choudhury</text><text x="0" y="34" fill="#000000" font-size="5px" font-weight="bold" font-family="'Helvetica Neue', Helvetica, Arial-Unicode, Arial, Sans-serif">from the Noun Project</text></svg>